<?xml version="1.0" encoding="UTF-8"?>
<svg xmlns="http://www.w3.org/2000/svg" xmlns:xlink="http://www.w3.org/1999/xlink" width="120px" height="120px" viewBox="0 0 120 120" version="1.1">
<defs>
<clipPath id="clip1">
  <path d="M 27.054688 36.046875 L 92.800781 36.046875 L 92.800781 89.570312 L 27.054688 89.570312 Z M 27.054688 36.046875 "/>
</clipPath>
<clipPath id="clip2">
  <path d="M 35.402344 37.121094 L 84.605469 37.121094 L 84.605469 88.960938 L 35.402344 88.960938 Z M 35.402344 37.121094 "/>
</clipPath>
<clipPath id="clip3">
  <path d="M 40.585938 61.441406 L 56.960938 61.441406 L 56.960938 79.039062 L 40.585938 79.039062 Z M 40.585938 61.441406 "/>
</clipPath>
<clipPath id="clip4">
  <path d="M 47.109375 55.105469 L 60.105469 55.105469 L 60.105469 79.835938 L 47.109375 79.835938 Z M 47.109375 55.105469 "/>
</clipPath>
<clipPath id="clip5">
  <path d="M 63.359375 61.457031 L 79.441406 61.457031 L 79.441406 79.039062 L 63.359375 79.039062 Z M 63.359375 61.457031 "/>
</clipPath>
<clipPath id="clip6">
  <path d="M 60 55.105469 L 72.960938 55.105469 L 72.960938 79.835938 L 60 79.835938 Z M 60 55.105469 "/>
</clipPath>
<clipPath id="clip7">
  <path d="M 41.601562 39.996094 L 78.71875 39.996094 L 78.71875 58.238281 L 41.601562 58.238281 Z M 41.601562 39.996094 "/>
</clipPath>
<clipPath id="clip8">
  <path d="M 42.085938 36.160156 L 77.367188 36.160156 L 77.367188 36.65625 L 42.085938 36.65625 Z M 42.085938 36.160156 "/>
</clipPath>
<clipPath id="clip9">
  <path d="M 59.519531 31.679688 L 76.800781 31.679688 L 76.800781 36.65625 L 59.519531 36.65625 Z M 59.519531 31.679688 "/>
</clipPath>
<clipPath id="clip10">
  <path d="M 59.519531 27.519531 L 75.199219 27.519531 L 75.199219 36.65625 L 59.519531 36.65625 Z M 59.519531 27.519531 "/>
</clipPath>
<clipPath id="clip11">
  <path d="M 59.519531 24 L 72.320312 24 L 72.320312 36.65625 L 59.519531 36.65625 Z M 59.519531 24 "/>
</clipPath>
<clipPath id="clip12">
  <path d="M 59.519531 21.121094 L 68.800781 21.121094 L 68.800781 36.65625 L 59.519531 36.65625 Z M 59.519531 21.121094 "/>
</clipPath>
<clipPath id="clip13">
  <path d="M 59.519531 19.199219 L 64.640625 19.199219 L 64.640625 36.65625 L 59.519531 36.65625 Z M 59.519531 19.199219 "/>
</clipPath>
<clipPath id="clip14">
  <path d="M 59.519531 18.894531 L 60 18.894531 L 60 36.65625 L 59.519531 36.65625 Z M 59.519531 18.894531 "/>
</clipPath>
<clipPath id="clip15">
  <path d="M 55.039062 19.199219 L 60 19.199219 L 60 36.65625 L 55.039062 36.65625 Z M 55.039062 19.199219 "/>
</clipPath>
<clipPath id="clip16">
  <path d="M 50.558594 21.121094 L 60 21.121094 L 60 36.65625 L 50.558594 36.65625 Z M 50.558594 21.121094 "/>
</clipPath>
<clipPath id="clip17">
  <path d="M 47.039062 24 L 60 24 L 60 36.65625 L 47.039062 36.65625 Z M 47.039062 24 "/>
</clipPath>
<clipPath id="clip18">
  <path d="M 44.160156 27.519531 L 60 27.519531 L 60 36.65625 L 44.160156 36.65625 Z M 44.160156 27.519531 "/>
</clipPath>
<clipPath id="clip19">
  <path d="M 42.558594 31.679688 L 60 31.679688 L 60 36.65625 L 42.558594 36.65625 Z M 42.558594 31.679688 "/>
</clipPath>
</defs>
<g id="surface1">
<rect x="0" y="0" width="120" height="120" style="fill:rgb(100%,100%,100%);fill-opacity:1;stroke:none;"/>
<g clip-path="url(#clip1)" clip-rule="nonzero">
<path style=" stroke:none;fill-rule:nonzero;fill:rgb(17.647059%,23.529412%,57.647059%);fill-opacity:1;" d="M 76.746094 36.085938 C 76.738281 36.089844 76.730469 36.089844 76.726562 36.089844 C 76.8125 36.609375 77.539062 36.898438 77.78125 37.367188 C 78.121094 37.71875 78.691406 38.429688 79.046875 38.945312 C 79.398438 39.460938 79.773438 39.972656 79.875 40.078125 C 79.976562 40.183594 80.269531 40.53125 80.53125 40.851562 C 81.089844 41.542969 82.453125 42.878906 83.359375 43.625 C 83.714844 43.917969 84.144531 44.277344 84.3125 44.421875 C 84.765625 44.8125 84.957031 44.785156 84.746094 44.363281 C 84.691406 44.253906 84.550781 43.839844 84.441406 43.449219 C 84.328125 43.058594 84.195312 42.65625 84.144531 42.558594 C 83.910156 41.859375 83.65625 41.222656 83.246094 40.601562 C 83.027344 40.191406 82.785156 39.792969 82.484375 39.464844 C 82.125 38.914062 81.558594 38.472656 81.066406 38.09375 C 79.878906 37.246094 78.585938 36.738281 77.234375 36.242188 C 77.015625 36.148438 76.8125 36.085938 76.746094 36.085938 Z M 42.324219 36.496094 C 41.457031 36.527344 40.632812 37.203125 39.835938 37.492188 C 38.710938 38.023438 38.085938 38.457031 37.300781 39.242188 C 36.625 39.917969 35.558594 41.554688 35.449219 42.085938 C 35.359375 42.527344 35.039062 43.625 34.859375 44.097656 C 34.777344 44.328125 34.671875 44.632812 34.632812 44.777344 C 34.523438 45.164062 34.699219 45.109375 35.289062 44.566406 C 35.578125 44.300781 36 43.945312 36.230469 43.769531 C 36.457031 43.597656 36.753906 43.347656 36.886719 43.214844 C 37.019531 43.082031 37.394531 42.730469 37.71875 42.425781 C 38.042969 42.128906 38.546875 41.550781 38.835938 41.144531 C 39.125 40.738281 39.671875 39.988281 40.042969 39.472656 C 40.535156 38.796875 40.988281 38.097656 41.609375 37.53125 C 42.101562 37.011719 42.5 36.546875 42.5 36.5 C 42.441406 36.492188 42.382812 36.492188 42.324219 36.496094 Z M 82.914062 39.113281 L 83.429688 39.683594 C 83.714844 40 83.984375 40.28125 84.027344 40.3125 C 84.546875 41.070312 84.859375 41.898438 85.019531 42.796875 C 85.113281 43.089844 85.277344 43.675781 85.386719 44.097656 C 85.492188 44.519531 85.679688 45.214844 85.800781 45.636719 C 86.160156 46.898438 86.167969 46.9375 86.089844 46.9375 C 86.046875 46.9375 85.84375 46.746094 85.636719 46.507812 C 84.867188 45.625 84.660156 45.441406 83.253906 44.460938 C 82.796875 44.144531 82.328125 43.796875 82.207031 43.6875 C 82.085938 43.578125 81.820312 43.390625 81.613281 43.265625 C 81.222656 43.035156 80.988281 42.773438 80.289062 41.792969 L 79.867188 41.199219 L 79.949219 41.792969 C 80.042969 42.484375 80.234375 43.042969 80.742188 44.097656 C 81.121094 44.886719 82.570312 46.476562 83.609375 47.242188 C 85.457031 48.609375 87.128906 50.230469 87.507812 51.03125 C 87.617188 51.261719 87.734375 51.425781 87.765625 51.394531 C 87.796875 51.367188 87.816406 49.804688 87.8125 47.929688 C 87.800781 44.324219 87.742188 43.886719 87.144531 42.679688 C 86.355469 41.085938 84.570312 39.484375 83.261719 39.195312 Z M 36.082031 39.609375 C 35.671875 39.628906 34.515625 40.292969 33.835938 40.964844 C 32.542969 42.238281 32.066406 43.078125 31.800781 44.527344 C 31.503906 46.148438 31.480469 46.71875 31.65625 48.359375 C 31.75 49.234375 31.796875 50.367188 31.761719 50.871094 C 31.722656 51.453125 31.746094 51.789062 31.824219 51.789062 C 31.890625 51.789062 31.976562 51.695312 32.015625 51.582031 C 32.296875 50.816406 33.628906 49.339844 34.859375 48.421875 C 36.917969 46.898438 38.445312 45.078125 39.097656 43.390625 C 39.507812 42.320312 39.589844 41.824219 39.351562 41.875 C 39.25 41.894531 39.082031 42.070312 38.972656 42.265625 C 38.699219 42.753906 37.914062 43.484375 36.582031 44.488281 C 35.355469 45.480469 33.996094 46.328125 33.203125 47.753906 C 32.855469 48.582031 32.941406 48.015625 33.324219 46.933594 C 33.542969 46.320312 33.8125 45.390625 33.921875 44.867188 C 34.230469 43.421875 34.453125 42.554688 34.660156 41.96875 C 34.921875 41.238281 35.5625 40.25 35.925781 40.011719 C 36.089844 39.902344 36.230469 39.765625 36.230469 39.707031 C 36.230469 39.636719 36.175781 39.609375 36.082031 39.609375 Z M 88.074219 43.390625 C 87.925781 43.414062 87.980469 43.636719 88.234375 44.039062 C 88.3125 44.171875 88.472656 44.597656 88.582031 44.984375 C 88.761719 45.601562 88.773438 45.957031 88.6875 47.707031 C 88.632812 48.8125 88.582031 50.855469 88.578125 52.246094 C 88.578125 53.824219 88.542969 54.625 88.480469 54.375 C 88.21875 53.304688 88.078125 52.972656 87.582031 52.21875 C 87.285156 51.769531 86.621094 51.023438 86.105469 50.5625 C 84.738281 49.335938 83.394531 47.996094 83.148438 47.609375 C 83.03125 47.421875 82.890625 47.316406 82.835938 47.371094 C 82.730469 47.476562 83.03125 48.730469 83.3125 49.363281 C 83.628906 50.246094 83.945312 51.074219 84.496094 51.835938 C 85.371094 53.222656 86.480469 54.457031 87.335938 55.851562 C 87.828125 56.582031 88.324219 57.628906 88.585938 58.5 C 88.710938 58.90625 88.839844 59.238281 88.875 59.242188 C 89.59375 57.722656 89.734375 55.800781 90.339844 54.332031 C 91.210938 52.347656 91.03125 48.28125 89.988281 46.230469 C 89.515625 45.195312 88.921875 44.203125 88.109375 43.390625 C 88.097656 43.390625 88.082031 43.386719 88.074219 43.390625 Z M 31.304688 43.910156 C 31.148438 43.945312 30.648438 44.515625 30.234375 45.242188 C 29.820312 45.992188 29.40625 46.765625 29.074219 47.546875 C 29.050781 47.699219 28.972656 48.011719 28.898438 48.238281 C 28.539062 50.417969 28.5 52.742188 29.355469 54.804688 C 29.488281 55.195312 29.761719 55.96875 29.960938 56.519531 C 30.167969 57.074219 30.355469 57.660156 30.386719 57.820312 C 30.429688 58.097656 30.5625 58.632812 30.613281 58.765625 C 30.625 58.800781 30.675781 59.007812 30.730469 59.226562 L 30.820312 59.621094 L 30.960938 59.285156 C 31.039062 59.101562 31.167969 58.691406 31.253906 58.382812 C 31.542969 57.433594 32.421875 56.050781 32.988281 55.28125 C 33.503906 54.519531 33.992188 53.765625 34.078125 53.609375 C 34.601562 52.894531 35.144531 52.199219 35.519531 51.390625 C 35.519531 51.332031 35.671875 50.957031 35.859375 50.5625 C 36.4375 49.328125 36.769531 47.886719 36.480469 47.886719 C 36.421875 47.886719 36.15625 48.175781 35.886719 48.535156 C 35.613281 48.890625 35.355469 49.1875 35.304688 49.1875 C 33.390625 50.632812 31.5625 52.605469 31.082031 55.023438 C 30.929688 55.949219 30.90625 55.328125 31.039062 53.917969 C 31.175781 52.457031 31.113281 51.28125 30.773438 48.855469 C 30.519531 47.074219 30.679688 45.414062 31.207031 44.355469 C 31.375 44.019531 31.386719 43.890625 31.304688 43.910156 Z M 91.71875 52.046875 C 91.660156 52.046875 91.628906 52.359375 91.589844 53.207031 C 91.445312 54.855469 91.015625 56.394531 90.355469 57.902344 C 89.667969 59.339844 89.082031 60.835938 88.785156 62.40625 C 88.675781 63.148438 88.574219 62.875 88.542969 61.742188 C 88.515625 60.65625 88.398438 60.167969 87.976562 59.324219 C 87.714844 58.765625 87.546875 58.171875 87.164062 57.667969 C 86.46875 56.707031 85.929688 55.609375 85.386719 54.570312 C 85.226562 54.242188 85.09375 53.910156 85.089844 53.828125 C 85.085938 53.570312 84.878906 53.671875 84.804688 53.964844 C 84.675781 54.488281 84.910156 56.257812 85.398438 58.414062 C 85.691406 59.710938 86.351562 62.050781 86.734375 63.144531 C 87.089844 64.152344 87.222656 65.214844 87.140625 66.425781 C 87.058594 67.726562 87.148438 67.921875 87.539062 67.316406 C 87.652344 67.136719 88.476562 66.027344 89.363281 64.847656 C 90.253906 63.671875 91.09375 62.472656 91.234375 62.1875 C 92.703125 59.191406 92.945312 54.761719 91.785156 52.144531 C 91.757812 52.082031 91.738281 52.046875 91.71875 52.046875 Z M 27.84375 52.5625 C 27.589844 52.816406 27.121094 55.417969 27.121094 56.574219 C 27.121094 57.691406 27.324219 59.332031 27.550781 60.0625 C 28.203125 62.308594 29.246094 64.3125 30.929688 66.011719 C 31.429688 66.628906 31.953125 67.351562 32.09375 67.621094 C 32.539062 68.472656 32.621094 68.277344 32.621094 66.367188 C 32.632812 65.121094 32.742188 63.957031 33.214844 62.789062 L 33.566406 61.546875 C 33.660156 61.222656 33.824219 60.636719 33.925781 60.246094 C 34.03125 59.855469 34.191406 59.265625 34.285156 58.933594 C 34.472656 58.195312 34.449219 57.4375 34.628906 56.699219 C 34.8125 55.933594 34.875 53.796875 34.710938 53.796875 C 33.824219 54.78125 31.890625 59.433594 31.703125 59.773438 C 31.230469 61.058594 31.148438 61.53125 31.199219 62.769531 C 31.253906 64.132812 31.109375 64.261719 30.917969 63.027344 C 30.671875 61.464844 30.320312 60.304688 29.789062 59.304688 C 29.621094 58.988281 29.484375 58.6875 29.484375 58.632812 C 29.484375 58.578125 29.328125 58.195312 29.132812 57.78125 C 28.9375 57.367188 28.777344 56.992188 28.777344 56.941406 C 28.777344 56.890625 28.703125 56.683594 28.609375 56.480469 C 28.230469 55.625 28.054688 54.859375 27.984375 53.710938 C 27.945312 53.042969 27.882812 52.523438 27.84375 52.5625 Z M 85.324219 60.777344 C 84.828125 61.648438 84.691406 62.769531 84.386719 63.710938 C 84.214844 64.578125 83.785156 68.5 83.785156 69.207031 C 83.785156 70.414062 83.09375 73.730469 82.691406 74.441406 C 82.34375 75.0625 82.265625 75.261719 82.324219 75.351562 C 83.59375 74.621094 84.835938 73.785156 86.035156 72.964844 C 86.40625 72.757812 86.722656 72.460938 87.097656 72.253906 C 87.34375 72.058594 87.574219 71.898438 87.609375 71.898438 C 89.585938 70.332031 91.28125 68.402344 92.105469 65.984375 C 92.578125 64.550781 92.832031 62.203125 92.582031 61.546875 C 92.480469 61.28125 92.304688 61.546875 92.304688 61.976562 C 92.300781 62.351562 91.710938 63.855469 91.476562 64.089844 C 91.441406 64.125 91.257812 64.386719 91.0625 64.675781 C 90.867188 64.964844 90.113281 65.816406 89.390625 66.570312 C 88.667969 67.320312 87.875 68.175781 87.628906 68.46875 C 87.191406 68.949219 86.804688 69.425781 86.46875 69.988281 C 86.1875 70.359375 85.734375 71.042969 85.6875 71.109375 C 85.300781 71.601562 85.101562 71.910156 85.078125 71.925781 C 85.082031 71.890625 85.222656 71.636719 85.488281 71.09375 C 85.789062 70.488281 86.003906 69.757812 86.15625 68.695312 C 86.308594 67.632812 86.238281 66.75 85.855469 64.859375 C 85.554688 63.371094 85.441406 62.480469 85.441406 61.621094 C 85.441406 61.140625 85.390625 60.777344 85.324219 60.777344 Z M 34.453125 61.636719 C 34.378906 61.632812 34.335938 61.761719 34.335938 62.039062 C 34.335938 62.53125 33.964844 64.65625 33.730469 65.511719 C 33.644531 65.828125 33.582031 66.808594 33.582031 67.9375 C 33.589844 69.175781 33.605469 70.464844 34.296875 71.546875 C 34.46875 71.808594 34.578125 72.050781 34.542969 72.085938 C 33.972656 71.578125 33.734375 70.824219 33.21875 70.261719 C 33.027344 69.980469 32.550781 69.394531 32.15625 68.960938 C 31.320312 68.039062 29.429688 66.042969 29.042969 65.667969 C 28.894531 65.523438 28.777344 65.367188 28.777344 65.328125 C 28.777344 65.285156 28.625 65.054688 28.441406 64.820312 C 28 64.253906 27.457031 63.082031 27.414062 62.597656 C 27.390625 62.386719 27.320312 62.117188 27.25 62 C 27.054688 61.664062 27.089844 64.09375 27.292969 65.214844 C 27.511719 66.398438 27.683594 66.882812 28.328125 68.089844 C 28.925781 69.226562 29.945312 70.480469 30.847656 71.199219 C 31.203125 71.484375 31.496094 71.761719 31.496094 71.808594 C 32.730469 72.667969 33.972656 73.582031 35.203125 74.386719 C 35.28125 74.390625 35.796875 74.703125 36.347656 75.085938 C 37.691406 76.011719 37.699219 76.011719 37.25 75.046875 C 37.09375 74.714844 36.886719 74.257812 36.789062 74.027344 C 36.4375 73.214844 36.058594 71.132812 35.929688 69.296875 C 35.742188 66.648438 35.265625 63.628906 34.828125 62.324219 C 34.679688 61.882812 34.542969 61.644531 34.453125 61.636719 Z M 83.078125 67.609375 C 83.0625 67.605469 83.050781 67.609375 83.035156 67.609375 C 82.945312 67.632812 82.808594 67.785156 82.621094 68.078125 C 82.417969 68.390625 82.121094 68.800781 81.957031 68.988281 C 81.183594 70.074219 80.476562 71.246094 80 72.488281 C 80 72.554688 79.949219 72.707031 79.882812 72.820312 C 79.816406 72.933594 79.550781 73.660156 79.296875 74.441406 C 78.730469 76.148438 78.5 76.804688 78.359375 77.078125 C 78.300781 77.191406 78.140625 77.519531 78 77.8125 C 77.5625 78.726562 77.019531 79.503906 76.367188 80.15625 C 76.152344 80.371094 75.980469 80.574219 75.980469 80.601562 C 75.980469 80.699219 76.460938 80.65625 76.675781 80.542969 C 76.933594 80.402344 78.402344 80.066406 79.292969 79.945312 C 80.957031 79.710938 81.566406 79.554688 83.078125 78.980469 C 84.109375 78.585938 86.140625 77.1875 87.277344 76.082031 C 88.261719 75.128906 89.144531 73.894531 89.695312 72.722656 C 90.039062 71.984375 90.5625 70.238281 90.46875 70.144531 C 90.445312 70.121094 90.316406 70.304688 90.179688 70.558594 C 89.792969 71.277344 89.679688 71.425781 88.992188 72.167969 C 88.375 72.828125 87.25 73.773438 86.863281 73.953125 C 86.765625 73.996094 86.523438 74.132812 86.328125 74.257812 C 86.136719 74.382812 85.574219 74.675781 85.085938 74.914062 C 84.601562 75.152344 84.121094 75.394531 84.023438 75.453125 C 83.925781 75.511719 83.558594 75.695312 83.214844 75.867188 C 81.976562 76.554688 80.765625 77.296875 79.699219 78.226562 C 79.460938 78.457031 79.238281 78.640625 79.203125 78.640625 C 79.140625 78.640625 79.527344 78.164062 79.832031 77.875 C 80.859375 76.65625 81.605469 75.246094 81.933594 73.671875 C 82.035156 73.183594 82.203125 72.226562 82.3125 71.542969 C 82.574219 69.855469 82.820312 68.734375 83.046875 68.199219 C 83.175781 67.890625 83.195312 67.710938 83.113281 67.628906 C 83.105469 67.617188 83.089844 67.609375 83.078125 67.605469 Z M 36.625 67.996094 C 36.332031 68.007812 37.101562 69.652344 37.0625 70.066406 C 37.460938 71.878906 37.53125 72.265625 37.53125 72.621094 C 37.53125 73.4375 38.359375 76.15625 38.714844 76.511719 C 39.09375 77.238281 39.484375 77.867188 40.164062 78.335938 L 41.019531 79.15625 L 40.292969 78.667969 C 39.894531 78.398438 39.488281 78.09375 39.386719 77.996094 C 38.257812 77.316406 37.234375 76.417969 35.984375 75.910156 C 32.230469 74.175781 30.777344 73.089844 29.574219 71.097656 C 29.277344 70.609375 29.246094 70.582031 29.304688 70.894531 C 29.34375 71.089844 29.402344 71.40625 29.4375 71.601562 C 30.117188 73.589844 31.234375 75.328125 32.804688 76.75 C 33.144531 77.042969 33.535156 77.382812 33.671875 77.503906 C 35.253906 78.761719 37.121094 79.632812 39.128906 79.953125 L 41.199219 80.304688 C 41.4375 80.347656 44.085938 81.082031 43.792969 80.652344 C 43.453125 80.652344 42.277344 79.082031 41.664062 77.8125 C 41.523438 77.519531 41.359375 77.191406 41.300781 77.078125 C 41.171875 76.820312 40.957031 76.226562 40.363281 74.464844 C 39.726562 72.574219 38.863281 70.8125 38.09375 69.828125 C 38.042969 69.765625 37.738281 69.371094 37.414062 68.957031 C 37.085938 68.542969 36.820312 68.15625 36.820312 68.097656 C 36.730469 68.027344 36.667969 67.992188 36.625 67.996094 Z M 78.648438 74.429688 C 78.457031 74.4375 77.519531 75.117188 76.882812 75.722656 C 76.523438 76.058594 76.03125 76.503906 75.78125 76.707031 C 75.53125 76.914062 74.535156 77.859375 73.570312 78.808594 C 71.953125 80.382812 70.222656 81.75 67.890625 82.074219 C 67.726562 82.074219 67.5625 82.121094 67.527344 82.179688 C 67.445312 82.316406 67.742188 82.425781 68.1875 82.425781 C 68.523438 82.425781 69.597656 82.652344 70.597656 82.925781 C 70.855469 83 71.28125 83.097656 71.542969 83.148438 C 71.804688 83.199219 72.523438 83.347656 73.140625 83.476562 C 75.324219 83.933594 77.621094 84.117188 79.765625 83.355469 C 81.621094 82.71875 83.292969 81.550781 84.546875 80.046875 C 84.96875 79.601562 85.773438 78.234375 85.574219 78.304688 C 85.511719 78.328125 85.171875 78.613281 84.828125 78.9375 C 84.164062 79.558594 83.898438 79.75 83.460938 79.941406 C 83.316406 80.003906 82.96875 80.164062 82.691406 80.296875 C 81.914062 80.675781 80.378906 80.96875 78.050781 81.179688 C 76.167969 81.363281 74.273438 81.695312 72.402344 81.816406 C 73.433594 81.515625 74.394531 81.015625 75.253906 80.359375 C 75.660156 80.007812 76.703125 78.46875 77.058594 77.695312 C 77.164062 77.46875 77.398438 76.960938 77.582031 76.570312 C 77.769531 76.179688 77.925781 75.832031 77.925781 75.796875 C 77.929688 75.765625 78.109375 75.457031 78.328125 75.113281 C 78.550781 74.773438 78.703125 74.46875 78.671875 74.4375 C 78.667969 74.433594 78.660156 74.429688 78.648438 74.429688 Z M 41.085938 74.660156 C 40.976562 74.667969 41.050781 74.863281 41.296875 75.246094 C 41.792969 76.019531 41.851562 76.136719 42.535156 77.457031 C 43.371094 79.089844 43.902344 79.894531 44.53125 80.492188 C 45.117188 81.054688 46.179688 81.648438 46.800781 81.765625 C 47.03125 81.808594 47.304688 81.976562 47.304688 81.976562 C 47.304688 81.976562 46.710938 81.96875 46.40625 81.894531 C 45.890625 81.796875 42.386719 81.445312 40.546875 81.316406 C 38.207031 81.148438 36.246094 80.445312 34.972656 79.3125 C 34.265625 78.679688 34.015625 78.660156 34.457031 79.265625 C 34.609375 79.476562 34.847656 79.804688 34.980469 80 C 36.078125 81.339844 37.539062 82.574219 39.136719 83.242188 C 39.292969 83.382812 39.929688 83.605469 40.902344 83.851562 C 41.960938 84.121094 43.832031 84.140625 45.511719 83.90625 C 46.210938 83.808594 46.835938 83.699219 46.890625 83.664062 C 46.949219 83.625 47.25 83.550781 47.558594 83.496094 C 47.867188 83.441406 48.519531 83.28125 49.007812 83.140625 C 49.496094 83 50.449219 82.765625 51.128906 82.621094 L 52.363281 82.355469 L 51.78125 82.207031 C 51.457031 82.125 51.019531 81.980469 50.808594 81.886719 C 49.789062 81.472656 48.707031 81.191406 47.824219 80.484375 C 47.597656 80.3125 46.929688 79.707031 46.339844 79.140625 C 44.777344 77.628906 43.234375 76.21875 42.421875 75.566406 C 41.65625 74.949219 41.222656 74.648438 41.085938 74.660156 Z M 63.488281 82.160156 C 62.851562 82.171875 62.160156 82.234375 61.425781 82.359375 C 61.265625 82.390625 60.941406 82.453125 60.707031 82.53125 C 59.984375 82.769531 59.785156 82.777344 59.328125 82.574219 C 58.964844 82.414062 58.453125 82.273438 56.519531 82.269531 C 55.390625 82.289062 54.292969 82.332031 53.230469 82.710938 C 52.578125 82.839844 51.976562 83.148438 51.34375 83.335938 C 50.9375 83.503906 50.277344 83.765625 49.882812 83.914062 C 49.484375 84.0625 48.820312 84.347656 48.394531 84.546875 C 47.378906 85.027344 45.988281 85.375 44.714844 85.464844 C 43.410156 85.558594 41.960938 85.285156 40.761719 84.71875 C 39.839844 84.285156 39.78125 84.265625 39.78125 84.429688 C 40.859375 85.71875 42.296875 86.554688 43.835938 87.175781 C 44.335938 87.441406 46.507812 87.765625 47.171875 87.675781 C 47.941406 87.574219 49.328125 87.289062 49.621094 87.175781 C 50.632812 86.78125 51.074219 86.570312 51.964844 86.042969 C 52.761719 85.558594 53.507812 85.011719 54.285156 84.503906 C 55.5625 83.53125 57.265625 82.960938 58.195312 83.191406 C 58.496094 83.269531 58.441406 83.3125 57.460938 83.8125 C 56.0625 84.527344 55 85.230469 53.570312 86.386719 C 52.15625 87.527344 51.21875 88.417969 51.273438 88.566406 C 51.296875 88.628906 51.578125 88.890625 51.90625 89.15625 C 52.230469 89.421875 52.554688 89.636719 52.628906 89.640625 C 52.703125 89.640625 52.917969 89.445312 53.101562 89.199219 C 53.746094 88.359375 56.265625 85.992188 56.917969 85.621094 C 57.554688 85.238281 58.078125 84.6875 58.761719 84.375 C 59.019531 84.25 59.308594 84.078125 59.394531 83.996094 C 59.753906 83.660156 60.855469 84.023438 61.902344 84.820312 C 62.0625 84.945312 62.410156 85.203125 62.671875 85.398438 C 63.460938 86 64.054688 86.484375 64.609375 86.984375 C 65.28125 87.585938 65.816406 88.25 66.496094 88.828125 C 66.949219 89.292969 67.273438 89.53125 67.414062 89.507812 C 67.703125 89.457031 68.640625 88.476562 68.574219 88.296875 C 68.449219 87.972656 66.574219 86.421875 65.09375 85.417969 C 64.542969 85.042969 64.0625 84.707031 64.03125 84.667969 C 63.996094 84.628906 63.8125 84.515625 63.617188 84.414062 C 63.421875 84.3125 62.871094 84.015625 62.390625 83.757812 L 61.523438 83.289062 L 61.90625 83.214844 C 63 82.996094 63.910156 83.28125 65.472656 84.328125 C 66.101562 84.765625 66.6875 85.25 67.363281 85.605469 C 69.21875 86.832031 71.128906 87.417969 73.265625 87.417969 C 74.964844 87.417969 76.050781 87.117188 77.699219 86.183594 C 78.753906 85.585938 80.382812 84.1875 80.214844 84.019531 C 80.179688 83.984375 79.835938 84.125 79.453125 84.332031 C 78.222656 84.996094 77.320312 85.1875 75.386719 85.183594 C 73.945312 85.171875 72.597656 84.949219 71.277344 84.339844 C 70.199219 83.808594 69.050781 83.398438 67.933594 82.960938 C 67.511719 82.761719 67.050781 82.691406 66.605469 82.5625 C 65.914062 82.347656 64.9375 82.167969 63.757812 82.160156 C 63.667969 82.160156 63.578125 82.160156 63.488281 82.160156 Z M 63.488281 82.160156 "/>
</g>
<g clip-path="url(#clip2)" clip-rule="nonzero">
<path style=" stroke:none;fill-rule:nonzero;fill:rgb(0%,4.705882%,32.941176%);fill-opacity:1;" d="M 59.59375 88.84375 C 59.851562 88.980469 60.152344 88.980469 60.410156 88.84375 C 63.574219 87.128906 84.171875 74.890625 84.585938 46.941406 C 84.597656 46.464844 84.210938 46.078125 83.734375 46.078125 L 81.695312 46.078125 C 78.183594 46.078125 75.332031 43.234375 75.332031 39.714844 C 75.332031 39.316406 75.046875 38.964844 74.65625 38.882812 L 72.980469 38.53125 C 64.421875 36.734375 55.578125 36.734375 47.019531 38.53125 L 45.34375 38.882812 C 44.953125 38.964844 44.667969 39.3125 44.667969 39.714844 C 44.667969 43.230469 41.820312 46.078125 38.304688 46.078125 L 36.265625 46.078125 C 35.789062 46.078125 35.402344 46.46875 35.410156 46.941406 C 35.832031 74.890625 56.433594 87.128906 59.59375 88.84375 Z M 36.613281 47.265625 L 38.308594 47.265625 C 42.378906 47.265625 45.710938 44.03125 45.855469 39.992188 L 47.265625 39.699219 C 51.449219 38.820312 55.734375 38.375 60.003906 38.375 C 64.273438 38.375 68.558594 38.820312 72.738281 39.699219 L 74.152344 39.992188 C 74.296875 44.027344 77.628906 47.265625 81.699219 47.265625 L 83.390625 47.265625 C 83.152344 58.613281 79.527344 68.609375 72.613281 76.972656 C 67.351562 83.328125 61.820312 86.703125 60.003906 87.710938 C 58.191406 86.707031 52.652344 83.332031 47.390625 76.972656 C 40.476562 68.609375 36.851562 58.613281 36.613281 47.265625 Z M 36.613281 47.265625 "/>
</g>
<path style=" stroke:none;fill-rule:nonzero;fill:rgb(0%,4.705882%,32.941176%);fill-opacity:1;" d="M 60.003906 86.332031 C 57.925781 85.109375 52.988281 81.863281 48.3125 76.207031 C 41.820312 68.363281 38.300781 59.03125 37.839844 48.457031 L 38.308594 48.457031 C 40.585938 48.457031 42.742188 47.585938 44.382812 46 C 45.789062 44.640625 46.683594 42.882812 46.960938 40.980469 L 47.511719 40.863281 C 51.613281 40.003906 55.8125 39.566406 60 39.566406 C 64.1875 39.566406 68.390625 40.003906 72.488281 40.863281 L 73.039062 40.980469 C 73.3125 42.886719 74.210938 44.640625 75.617188 46 C 77.257812 47.585938 79.417969 48.457031 81.691406 48.457031 L 82.15625 48.457031 C 81.703125 59.03125 78.183594 68.363281 71.691406 76.210938 C 67.019531 81.863281 62.078125 85.113281 60.003906 86.332031 Z M 60.003906 86.332031 "/>
<g clip-path="url(#clip3)" clip-rule="nonzero">
<path style=" stroke:none;fill-rule:nonzero;fill:rgb(17.647059%,23.529412%,57.647059%);fill-opacity:1;" d="M 43.917969 74.296875 L 42.503906 61.519531 C 41.875 61.5 41.246094 61.488281 40.613281 61.480469 C 41.195312 66.730469 41.777344 71.980469 42.359375 77.230469 C 47.234375 77.402344 52.023438 78.011719 56.667969 79.027344 C 52.8125 77.121094 48.714844 75.578125 44.480469 74.449219 L 43.917969 74.296875 "/>
</g>
<path style=" stroke:none;fill-rule:nonzero;fill:rgb(22.745098%,45.098039%,75.686275%);fill-opacity:1;" d="M 48.449219 71.605469 L 48.078125 71.390625 L 46.675781 58.722656 C 45.453125 58.417969 44.210938 58.132812 42.957031 57.878906 C 43.089844 59.105469 43.226562 60.328125 43.363281 61.550781 C 43.808594 65.578125 44.253906 69.605469 44.703125 73.628906 C 49.304688 74.859375 53.625 76.527344 57.609375 78.546875 C 54.921875 75.914062 51.851562 73.585938 48.449219 71.605469 "/>
<g clip-path="url(#clip4)" clip-rule="nonzero">
<path style=" stroke:none;fill-rule:nonzero;fill:rgb(32.156863%,67.45098%,89.411765%);fill-opacity:1;" d="M 47.136719 55.121094 C 47.277344 56.394531 47.417969 57.671875 47.558594 58.945312 C 47.664062 59.910156 47.773438 60.875 47.878906 61.839844 C 48.210938 64.851562 48.546875 67.859375 48.878906 70.871094 C 53.246094 73.417969 56.984375 76.476562 60.027344 79.835938 L 60.027344 62.699219 C 56.230469 59.785156 51.914062 57.210938 47.136719 55.121094 "/>
</g>
<g clip-path="url(#clip5)" clip-rule="nonzero">
<path style=" stroke:none;fill-rule:nonzero;fill:rgb(17.647059%,23.529412%,57.647059%);fill-opacity:1;" d="M 75.578125 74.449219 C 71.339844 75.578125 67.246094 77.121094 63.390625 79.027344 C 68.03125 78.011719 72.820312 77.402344 77.699219 77.230469 C 78.28125 71.980469 78.859375 66.730469 79.441406 61.480469 C 78.8125 61.488281 78.183594 61.5 77.554688 61.519531 L 76.136719 74.296875 L 75.578125 74.449219 "/>
</g>
<path style=" stroke:none;fill-rule:nonzero;fill:rgb(22.745098%,45.098039%,75.686275%);fill-opacity:1;" d="M 71.605469 71.605469 L 71.976562 71.390625 L 73.378906 58.722656 C 74.605469 58.417969 75.84375 58.132812 77.101562 57.878906 C 76.964844 59.105469 76.828125 60.328125 76.695312 61.550781 C 76.246094 65.578125 75.800781 69.605469 75.355469 73.628906 C 70.75 74.859375 66.429688 76.527344 62.449219 78.546875 C 65.136719 75.914062 68.207031 73.585938 71.605469 71.605469 "/>
<g clip-path="url(#clip6)" clip-rule="nonzero">
<path style=" stroke:none;fill-rule:nonzero;fill:rgb(32.156863%,67.45098%,89.411765%);fill-opacity:1;" d="M 72.921875 55.121094 C 72.78125 56.394531 72.640625 57.671875 72.5 58.945312 C 72.390625 59.910156 72.285156 60.875 72.175781 61.839844 C 71.84375 64.851562 71.511719 67.859375 71.175781 70.871094 C 66.808594 73.417969 63.070312 76.476562 60.027344 79.835938 L 60.027344 62.699219 C 63.828125 59.785156 68.140625 57.210938 72.921875 55.121094 "/>
</g>
<g clip-path="url(#clip7)" clip-rule="nonzero">
<path style=" stroke:none;fill-rule:nonzero;fill:rgb(96.862745%,79.607843%,5.490196%);fill-opacity:1;" d="M 65.605469 56.5 L 76.78125 49.636719 L 64.855469 56.046875 L 71.757812 50.679688 L 64.902344 55.402344 L 74.402344 46.375 L 64.078125 55.117188 L 69.707031 48.4375 L 63.988281 54.476562 L 71.398438 43.675781 L 63.121094 54.371094 L 67.234375 46.667969 L 62.902344 53.761719 L 67.894531 41.664062 L 62.03125 53.835938 L 64.449219 45.449219 L 61.691406 53.285156 L 64.050781 40.417969 L 60.851562 53.539062 L 61.46875 44.835938 L 60.40625 53.074219 L 60.027344 39.996094 L 59.640625 53.496094 L 58.421875 44.855469 L 59.105469 53.128906 L 56.007812 40.417969 L 58.441406 53.703125 L 55.453125 45.5 L 57.84375 53.457031 L 52.160156 41.664062 L 57.3125 54.152344 L 52.675781 46.75 L 56.675781 54.035156 L 48.660156 43.675781 L 56.304688 54.828125 L 50.226562 48.546875 L 55.65625 54.84375 L 45.652344 46.375 L 55.457031 55.695312 L 48.203125 50.8125 L 54.828125 55.847656 L 43.277344 49.636719 L 54.8125 56.71875 L 46.695312 53.449219 L 54.230469 57 L 52.359375 56.453125 C 53.394531 57.011719 54.410156 57.59375 55.40625 58.203125 C 55.890625 56.109375 57.777344 54.542969 60.027344 54.542969 C 62.28125 54.542969 64.164062 56.109375 64.652344 58.203125 C 65.644531 57.59375 66.660156 57.011719 67.695312 56.453125 L 65.421875 57.117188 L 73.296875 53.296875 Z M 45.972656 54.585938 L 41.632812 53.316406 L 46.003906 54.871094 Z M 74.050781 54.871094 L 78.425781 53.316406 L 74.082031 54.585938 L 74.050781 54.871094 "/>
</g>
<g clip-path="url(#clip8)" clip-rule="nonzero">
<path style=" stroke:none;fill-rule:nonzero;fill:rgb(17.647059%,23.529412%,57.647059%);fill-opacity:1;" d="M 77.242188 36.714844 L 42.238281 36.714844 C 42.15625 36.714844 42.085938 36.648438 42.085938 36.5625 C 42.085938 36.476562 42.15625 36.40625 42.238281 36.40625 L 77.242188 36.40625 C 77.328125 36.40625 77.394531 36.476562 77.394531 36.5625 C 77.394531 36.648438 77.328125 36.714844 77.242188 36.714844 Z M 77.242188 36.714844 "/>
</g>
<g clip-path="url(#clip9)" clip-rule="nonzero">
<path style=" stroke:none;fill-rule:nonzero;fill:rgb(17.647059%,23.529412%,57.647059%);fill-opacity:1;" d="M 59.742188 36.71875 C 59.65625 36.71875 59.585938 36.648438 59.585938 36.566406 C 59.585938 36.515625 59.609375 36.46875 59.644531 36.441406 C 59.667969 36.421875 59.695312 36.410156 59.726562 36.40625 L 76.605469 31.882812 C 76.6875 31.859375 76.773438 31.910156 76.796875 31.992188 C 76.816406 32.074219 76.765625 32.160156 76.683594 32.179688 L 59.800781 36.707031 C 59.78125 36.714844 59.761719 36.71875 59.742188 36.71875 Z M 59.742188 36.71875 "/>
</g>
<g clip-path="url(#clip10)" clip-rule="nonzero">
<path style=" stroke:none;fill-rule:nonzero;fill:rgb(17.647059%,23.529412%,57.647059%);fill-opacity:1;" d="M 59.742188 36.71875 C 59.65625 36.71875 59.585938 36.648438 59.585938 36.566406 C 59.585938 36.523438 59.601562 36.484375 59.625 36.457031 C 59.636719 36.445312 59.648438 36.433594 59.664062 36.425781 L 74.816406 27.679688 C 74.890625 27.636719 74.984375 27.660156 75.027344 27.734375 C 75.070312 27.808594 75.046875 27.902344 74.972656 27.945312 L 59.839844 36.679688 C 59.8125 36.703125 59.777344 36.71875 59.742188 36.71875 Z M 59.742188 36.71875 "/>
</g>
<g clip-path="url(#clip11)" clip-rule="nonzero">
<path style=" stroke:none;fill-rule:nonzero;fill:rgb(17.647059%,23.529412%,57.647059%);fill-opacity:1;" d="M 59.742188 36.71875 C 59.65625 36.71875 59.585938 36.648438 59.585938 36.566406 C 59.585938 36.527344 59.597656 36.496094 59.617188 36.46875 C 59.621094 36.460938 59.625 36.457031 59.632812 36.453125 L 72.003906 24.078125 C 72.066406 24.019531 72.164062 24.019531 72.222656 24.078125 C 72.28125 24.140625 72.28125 24.234375 72.222656 24.296875 L 59.863281 36.65625 C 59.832031 36.695312 59.789062 36.71875 59.742188 36.71875 Z M 59.742188 36.71875 "/>
</g>
<g clip-path="url(#clip12)" clip-rule="nonzero">
<path style=" stroke:none;fill-rule:nonzero;fill:rgb(17.647059%,23.529412%,57.647059%);fill-opacity:1;" d="M 59.742188 36.71875 C 59.65625 36.71875 59.585938 36.648438 59.585938 36.566406 C 59.585938 36.542969 59.589844 36.523438 59.597656 36.503906 C 59.597656 36.496094 59.601562 36.484375 59.609375 36.480469 L 68.355469 21.328125 C 68.398438 21.257812 68.492188 21.230469 68.566406 21.273438 C 68.640625 21.316406 68.664062 21.410156 68.621094 21.484375 L 59.882812 36.621094 C 59.859375 36.675781 59.804688 36.71875 59.742188 36.71875 Z M 59.742188 36.71875 "/>
</g>
<g clip-path="url(#clip13)" clip-rule="nonzero">
<path style=" stroke:none;fill-rule:nonzero;fill:rgb(17.647059%,23.529412%,57.647059%);fill-opacity:1;" d="M 59.742188 36.71875 C 59.65625 36.71875 59.585938 36.648438 59.585938 36.566406 C 59.585938 36.546875 59.585938 36.53125 59.589844 36.519531 C 59.589844 36.515625 59.59375 36.515625 59.59375 36.515625 L 64.121094 19.621094 C 64.140625 19.539062 64.226562 19.488281 64.308594 19.511719 C 64.390625 19.53125 64.4375 19.617188 64.417969 19.699219 L 59.890625 36.589844 C 59.875 36.660156 59.8125 36.71875 59.742188 36.71875 Z M 59.742188 36.71875 "/>
</g>
<g clip-path="url(#clip14)" clip-rule="nonzero">
<path style=" stroke:none;fill-rule:nonzero;fill:rgb(17.647059%,23.529412%,57.647059%);fill-opacity:1;" d="M 59.742188 36.714844 C 59.65625 36.714844 59.585938 36.652344 59.585938 36.570312 L 59.585938 19.058594 C 59.585938 18.972656 59.65625 18.90625 59.742188 18.90625 C 59.828125 18.90625 59.894531 18.972656 59.894531 19.058594 L 59.894531 36.554688 C 59.894531 36.640625 59.828125 36.714844 59.742188 36.714844 Z M 59.742188 36.714844 "/>
</g>
<g clip-path="url(#clip15)" clip-rule="nonzero">
<path style=" stroke:none;fill-rule:nonzero;fill:rgb(17.647059%,23.529412%,57.647059%);fill-opacity:1;" d="M 59.742188 36.722656 C 59.691406 36.722656 59.644531 36.695312 59.617188 36.660156 C 59.601562 36.640625 59.585938 36.613281 59.582031 36.585938 L 55.058594 19.699219 C 55.039062 19.617188 55.085938 19.53125 55.167969 19.511719 C 55.25 19.488281 55.335938 19.539062 55.359375 19.621094 L 59.878906 36.5 C 59.890625 36.519531 59.894531 36.542969 59.894531 36.566406 C 59.894531 36.648438 59.828125 36.722656 59.742188 36.722656 Z M 59.742188 36.722656 "/>
</g>
<g clip-path="url(#clip16)" clip-rule="nonzero">
<path style=" stroke:none;fill-rule:nonzero;fill:rgb(17.647059%,23.529412%,57.647059%);fill-opacity:1;" d="M 59.742188 36.722656 C 59.691406 36.722656 59.644531 36.695312 59.617188 36.660156 C 59.605469 36.648438 59.597656 36.636719 59.59375 36.621094 L 50.855469 21.484375 C 50.8125 21.410156 50.835938 21.316406 50.910156 21.273438 C 50.984375 21.230469 51.078125 21.257812 51.121094 21.328125 L 59.867188 36.476562 C 59.886719 36.503906 59.894531 36.53125 59.894531 36.566406 C 59.894531 36.648438 59.828125 36.722656 59.742188 36.722656 Z M 59.742188 36.722656 "/>
</g>
<g clip-path="url(#clip17)" clip-rule="nonzero">
<path style=" stroke:none;fill-rule:nonzero;fill:rgb(17.647059%,23.529412%,57.647059%);fill-opacity:1;" d="M 59.742188 36.722656 C 59.699219 36.722656 59.660156 36.703125 59.632812 36.679688 C 59.628906 36.675781 59.625 36.671875 59.621094 36.667969 L 47.253906 24.296875 C 47.195312 24.234375 47.195312 24.140625 47.253906 24.078125 C 47.316406 24.019531 47.414062 24.019531 47.472656 24.078125 L 59.828125 36.4375 C 59.835938 36.445312 59.839844 36.449219 59.847656 36.457031 C 59.875 36.484375 59.894531 36.523438 59.894531 36.566406 C 59.894531 36.648438 59.828125 36.722656 59.742188 36.722656 Z M 59.742188 36.722656 "/>
</g>
<g clip-path="url(#clip18)" clip-rule="nonzero">
<path style=" stroke:none;fill-rule:nonzero;fill:rgb(17.647059%,23.529412%,57.647059%);fill-opacity:1;" d="M 59.742188 36.71875 C 59.710938 36.71875 59.683594 36.710938 59.65625 36.695312 L 44.507812 27.945312 C 44.433594 27.902344 44.40625 27.808594 44.449219 27.734375 C 44.492188 27.660156 44.585938 27.636719 44.660156 27.679688 L 59.796875 36.421875 C 59.828125 36.433594 59.851562 36.453125 59.867188 36.480469 C 59.882812 36.503906 59.890625 36.535156 59.890625 36.566406 C 59.890625 36.648438 59.828125 36.71875 59.742188 36.71875 Z M 59.742188 36.71875 "/>
</g>
<g clip-path="url(#clip19)" clip-rule="nonzero">
<path style=" stroke:none;fill-rule:nonzero;fill:rgb(17.647059%,23.529412%,57.647059%);fill-opacity:1;" d="M 59.742188 36.714844 C 59.726562 36.714844 59.707031 36.714844 59.695312 36.710938 C 59.695312 36.710938 59.691406 36.707031 59.691406 36.707031 L 42.796875 32.179688 C 42.714844 32.160156 42.664062 32.074219 42.6875 31.992188 C 42.707031 31.910156 42.792969 31.859375 42.875 31.882812 L 59.765625 36.410156 C 59.835938 36.425781 59.894531 36.484375 59.894531 36.558594 C 59.894531 36.644531 59.828125 36.714844 59.742188 36.714844 Z M 59.742188 36.714844 "/>
</g>
</g>
</svg>
